<svg xmlns="http://www.w3.org/2000/svg" xmlns:xlink="http://www.w3.org/1999/xlink" version="1.1" width="48" height="48" viewBox="0 0 256 256" xml:space="preserve">

<defs>
</defs>
<g style="stroke: none; stroke-width: 0; stroke-dasharray: none; stroke-linecap: butt; stroke-linejoin: miter; stroke-miterlimit: 10; fill: none; fill-rule: nonzero; opacity: 1;" transform="translate(1.4065934065934016 1.4065934065934016) scale(2.81 2.81)" >
	<path d="M 74.601 90 H 15.399 C 6.894 90 0 83.106 0 74.601 l 0 -59.202 C 0 6.894 6.894 0 15.399 0 l 59.202 0 C 83.106 0 90 6.894 90 15.399 v 59.202 C 90 83.106 83.106 90 74.601 90 z" style="stroke: none; stroke-width: 1; stroke-dasharray: none; stroke-linecap: butt; stroke-linejoin: miter; stroke-miterlimit: 10; fill: rgb(29,155,240); fill-rule: nonzero; opacity: 1;" transform=" matrix(1 0 0 1 0 0) " stroke-linecap="round" />
	<path d="M 17.884 19.496 L 38.925 47.63 L 17.751 70.504 h 4.765 l 18.538 -20.027 l 14.978 20.027 h 16.217 L 50.024 40.788 l 19.708 -21.291 h -4.765 L 47.895 37.94 L 34.101 19.496 H 17.884 z M 24.892 23.006 h 7.45 L 65.24 66.993 h -7.45 L 24.892 23.006 z" style="stroke: none; stroke-width: 1; stroke-dasharray: none; stroke-linecap: butt; stroke-linejoin: miter; stroke-miterlimit: 10; fill: rgb(255,255,255); fill-rule: nonzero; opacity: 1;" transform=" matrix(1 0 0 1 0 0) " stroke-linecap="round" />
</g>
</svg>